<svg width="134" height="20" viewBox="0 0 134 20" fill="none" xmlns="http://www.w3.org/2000/svg">
<path d="M20 10C20 4.47715 15.5228 0 10 0C4.47715 0 0 4.47715 0 10C0 15.5228 4.47715 20 10 20C15.5228 20 20 15.5228 20 10Z" fill="white"/>
<path fill-rule="evenodd" clip-rule="evenodd" d="M14.8938 10.1136C14.8938 9.75909 14.8619 9.41819 14.8029 9.09091H10.0938V11.025H12.7847C12.6688 11.65 12.3165 12.1796 11.7869 12.5341V13.7886H13.4028C14.3483 12.9182 14.8938 11.6364 14.8938 10.1136Z" fill="#4285F4"/>
<path fill-rule="evenodd" clip-rule="evenodd" d="M10.0936 15C11.4436 15 12.5754 14.5523 13.4027 13.7886L11.7867 12.5341C11.339 12.8341 10.7663 13.0113 10.0936 13.0113C8.79128 13.0113 7.68901 12.1318 7.29582 10.95H5.62537V12.2454C6.4481 13.8795 8.13901 15 10.0936 15Z" fill="#34A853"/>
<path fill-rule="evenodd" clip-rule="evenodd" d="M7.29603 10.95C7.19603 10.65 7.13921 10.3295 7.13921 9.99998C7.13921 9.67043 7.19603 9.34997 7.29603 9.04997V7.75452H5.62557C5.28693 8.42952 5.09375 9.19316 5.09375 9.99998C5.09375 10.8068 5.28693 11.5704 5.62557 12.2454L7.29603 10.95Z" fill="#FBBC05"/>
<path fill-rule="evenodd" clip-rule="evenodd" d="M10.0936 6.98864C10.8277 6.98864 11.4867 7.24091 12.0049 7.73637L13.439 6.30228C12.5731 5.49546 11.4413 5 10.0936 5C8.13901 5 6.4481 6.12046 5.62537 7.75455L7.29582 9.05001C7.68901 7.86819 8.79128 6.98864 10.0936 6.98864Z" fill="#EA4335"/>
<path d="M31.12 10.096H36.896V11.472H31.12V10.096ZM31.28 16H29.68V4.8H37.584V6.192H31.28V16ZM39.456 16V7.52H40.928V9.824L40.784 9.248C41.0187 8.66133 41.4133 8.21333 41.968 7.904C42.5227 7.59467 43.2053 7.44 44.016 7.44V8.928C43.952 8.91733 43.888 8.912 43.824 8.912C43.7707 8.912 43.7173 8.912 43.664 8.912C42.8427 8.912 42.192 9.15733 41.712 9.648C41.232 10.1387 40.992 10.848 40.992 11.776V16H39.456ZM49.463 16.096C48.6097 16.096 47.8523 15.9093 47.191 15.536C46.5297 15.1627 46.007 14.6507 45.623 14C45.239 13.3387 45.047 12.592 45.047 11.76C45.047 10.9173 45.239 10.1707 45.623 9.52C46.007 8.86933 46.5297 8.36267 47.191 8C47.8523 7.62667 48.6097 7.44 49.463 7.44C50.3057 7.44 51.0577 7.62667 51.719 8C52.391 8.36267 52.9137 8.86933 53.287 9.52C53.671 10.16 53.863 10.9067 53.863 11.76C53.863 12.6027 53.671 13.3493 53.287 14C52.9137 14.6507 52.391 15.1627 51.719 15.536C51.0577 15.9093 50.3057 16.096 49.463 16.096ZM49.463 14.752C50.007 14.752 50.4923 14.6293 50.919 14.384C51.3563 14.1387 51.6977 13.792 51.943 13.344C52.1883 12.8853 52.311 12.3573 52.311 11.76C52.311 11.152 52.1883 10.6293 51.943 10.192C51.6977 9.744 51.3563 9.39733 50.919 9.152C50.4923 8.90667 50.007 8.784 49.463 8.784C48.919 8.784 48.4337 8.90667 48.007 9.152C47.5803 9.39733 47.239 9.744 46.983 10.192C46.727 10.6293 46.599 11.152 46.599 11.76C46.599 12.3573 46.727 12.8853 46.983 13.344C47.239 13.792 47.5803 14.1387 48.007 14.384C48.4337 14.6293 48.919 14.752 49.463 14.752ZM66.5953 7.44C67.2779 7.44 67.8806 7.57333 68.4033 7.84C68.9259 8.10667 69.3313 8.512 69.6193 9.056C69.9179 9.6 70.0673 10.288 70.0673 11.12V16H68.5313V11.296C68.5313 10.4747 68.3393 9.856 67.9553 9.44C67.5713 9.024 67.0326 8.816 66.3393 8.816C65.8273 8.816 65.3793 8.92267 64.9953 9.136C64.6113 9.34933 64.3126 9.664 64.0993 10.08C63.8966 10.496 63.7953 11.0133 63.7953 11.632V16H62.2593V11.296C62.2593 10.4747 62.0673 9.856 61.6833 9.44C61.3099 9.024 60.7713 8.816 60.0673 8.816C59.5659 8.816 59.1233 8.92267 58.7393 9.136C58.3553 9.34933 58.0566 9.664 57.8433 10.08C57.6299 10.496 57.5233 11.0133 57.5233 11.632V16H55.9873V7.52H57.4593V9.776L57.2193 9.2C57.4859 8.64533 57.8966 8.21333 58.4513 7.904C59.0059 7.59467 59.6513 7.44 60.3873 7.44C61.1979 7.44 61.8966 7.64267 62.4833 8.048C63.0699 8.44267 63.4539 9.04533 63.6353 9.856L63.0113 9.6C63.2673 8.94933 63.7153 8.42667 64.3553 8.032C64.9953 7.63733 65.7419 7.44 66.5953 7.44ZM82.4704 16.128C81.6064 16.128 80.8117 15.9893 80.0864 15.712C79.361 15.424 78.7317 15.024 78.1984 14.512C77.665 13.9893 77.249 13.3813 76.9504 12.688C76.6517 11.9947 76.5024 11.232 76.5024 10.4C76.5024 9.568 76.6517 8.80533 76.9504 8.112C77.249 7.41867 77.665 6.816 78.1984 6.304C78.7424 5.78133 79.377 5.38133 80.1024 5.104C80.8277 4.816 81.6277 4.672 82.5024 4.672C83.3877 4.672 84.1984 4.816 84.9344 5.104C85.6704 5.392 86.2944 5.824 86.8064 6.4L85.8144 7.392C85.3557 6.944 84.8544 6.61867 84.3104 6.416C83.777 6.20267 83.1957 6.096 82.5664 6.096C81.9264 6.096 81.329 6.20267 80.7744 6.416C80.2304 6.62933 79.7557 6.928 79.3504 7.312C78.9557 7.696 78.6464 8.15467 78.4224 8.688C78.209 9.21067 78.1024 9.78133 78.1024 10.4C78.1024 11.008 78.209 11.5787 78.4224 12.112C78.6464 12.6347 78.9557 13.0933 79.3504 13.488C79.7557 13.872 80.2304 14.1707 80.7744 14.384C81.3184 14.5973 81.9104 14.704 82.5504 14.704C83.1477 14.704 83.7184 14.6133 84.2624 14.432C84.817 14.24 85.329 13.9253 85.7984 13.488L86.7104 14.704C86.1557 15.1733 85.505 15.5307 84.7584 15.776C84.0224 16.0107 83.2597 16.128 82.4704 16.128ZM85.1744 14.496V10.336H86.7104V14.704L85.1744 14.496ZM93.1818 16.096C92.3284 16.096 91.5711 15.9093 90.9098 15.536C90.2484 15.1627 89.7258 14.6507 89.3418 14C88.9578 13.3387 88.7658 12.592 88.7658 11.76C88.7658 10.9173 88.9578 10.1707 89.3418 9.52C89.7258 8.86933 90.2484 8.36267 90.9098 8C91.5711 7.62667 92.3284 7.44 93.1818 7.44C94.0244 7.44 94.7764 7.62667 95.4378 8C96.1098 8.36267 96.6324 8.86933 97.0058 9.52C97.3898 10.16 97.5818 10.9067 97.5818 11.76C97.5818 12.6027 97.3898 13.3493 97.0058 14C96.6324 14.6507 96.1098 15.1627 95.4378 15.536C94.7764 15.9093 94.0244 16.096 93.1818 16.096ZM93.1818 14.752C93.7258 14.752 94.2111 14.6293 94.6378 14.384C95.0751 14.1387 95.4164 13.792 95.6618 13.344C95.9071 12.8853 96.0298 12.3573 96.0298 11.76C96.0298 11.152 95.9071 10.6293 95.6618 10.192C95.4164 9.744 95.0751 9.39733 94.6378 9.152C94.2111 8.90667 93.7258 8.784 93.1818 8.784C92.6378 8.784 92.1524 8.90667 91.7258 9.152C91.2991 9.39733 90.9578 9.744 90.7018 10.192C90.4458 10.6293 90.3178 11.152 90.3178 11.76C90.3178 12.3573 90.4458 12.8853 90.7018 13.344C90.9578 13.792 91.2991 14.1387 91.7258 14.384C92.1524 14.6293 92.6378 14.752 93.1818 14.752ZM103.338 16.096C102.485 16.096 101.727 15.9093 101.066 15.536C100.405 15.1627 99.882 14.6507 99.498 14C99.114 13.3387 98.922 12.592 98.922 11.76C98.922 10.9173 99.114 10.1707 99.498 9.52C99.882 8.86933 100.405 8.36267 101.066 8C101.727 7.62667 102.485 7.44 103.338 7.44C104.181 7.44 104.933 7.62667 105.594 8C106.266 8.36267 106.789 8.86933 107.162 9.52C107.546 10.16 107.738 10.9067 107.738 11.76C107.738 12.6027 107.546 13.3493 107.162 14C106.789 14.6507 106.266 15.1627 105.594 15.536C104.933 15.9093 104.181 16.096 103.338 16.096ZM103.338 14.752C103.882 14.752 104.367 14.6293 104.794 14.384C105.231 14.1387 105.573 13.792 105.818 13.344C106.063 12.8853 106.186 12.3573 106.186 11.76C106.186 11.152 106.063 10.6293 105.818 10.192C105.573 9.744 105.231 9.39733 104.794 9.152C104.367 8.90667 103.882 8.784 103.338 8.784C102.794 8.784 102.309 8.90667 101.882 9.152C101.455 9.39733 101.114 9.744 100.858 10.192C100.602 10.6293 100.474 11.152 100.474 11.76C100.474 12.3573 100.602 12.8853 100.858 13.344C101.114 13.792 101.455 14.1387 101.882 14.384C102.309 14.6293 102.794 14.752 103.338 14.752ZM113.574 19.2C112.796 19.2 112.038 19.088 111.302 18.864C110.577 18.6507 109.985 18.3413 109.526 17.936L110.262 16.752C110.657 17.0933 111.142 17.36 111.718 17.552C112.294 17.7547 112.897 17.856 113.526 17.856C114.529 17.856 115.265 17.6213 115.734 17.152C116.204 16.6827 116.438 15.968 116.438 15.008V13.216L116.598 11.536L116.518 9.84V7.52H117.974V14.848C117.974 16.3413 117.601 17.44 116.854 18.144C116.108 18.848 115.014 19.2 113.574 19.2ZM113.382 15.648C112.561 15.648 111.825 15.4773 111.174 15.136C110.534 14.784 110.022 14.2987 109.638 13.68C109.265 13.0613 109.078 12.3467 109.078 11.536C109.078 10.7147 109.265 10 109.638 9.392C110.022 8.77333 110.534 8.29333 111.174 7.952C111.825 7.61067 112.561 7.44 113.382 7.44C114.108 7.44 114.769 7.58933 115.366 7.888C115.964 8.176 116.438 8.624 116.79 9.232C117.153 9.84 117.334 10.608 117.334 11.536C117.334 12.4533 117.153 13.216 116.79 13.824C116.438 14.432 115.964 14.8907 115.366 15.2C114.769 15.4987 114.108 15.648 113.382 15.648ZM113.558 14.304C114.124 14.304 114.625 14.1867 115.062 13.952C115.5 13.7173 115.841 13.392 116.086 12.976C116.342 12.56 116.47 12.08 116.47 11.536C116.47 10.992 116.342 10.512 116.086 10.096C115.841 9.68 115.5 9.36 115.062 9.136C114.625 8.90133 114.124 8.784 113.558 8.784C112.993 8.784 112.486 8.90133 112.038 9.136C111.601 9.36 111.254 9.68 110.998 10.096C110.753 10.512 110.63 10.992 110.63 11.536C110.63 12.08 110.753 12.56 110.998 12.976C111.254 13.392 111.601 13.7173 112.038 13.952C112.486 14.1867 112.993 14.304 113.558 14.304ZM120.909 16V4.128H122.445V16H120.909ZM129.154 16.096C128.247 16.096 127.447 15.9093 126.754 15.536C126.071 15.1627 125.538 14.6507 125.154 14C124.781 13.3493 124.594 12.6027 124.594 11.76C124.594 10.9173 124.775 10.1707 125.138 9.52C125.511 8.86933 126.018 8.36267 126.658 8C127.309 7.62667 128.039 7.44 128.85 7.44C129.671 7.44 130.397 7.62133 131.026 7.984C131.655 8.34667 132.146 8.85867 132.498 9.52C132.861 10.1707 133.042 10.9333 133.042 11.808C133.042 11.872 133.037 11.9467 133.026 12.032C133.026 12.1173 133.021 12.1973 133.01 12.272H125.794V11.168H132.21L131.586 11.552C131.597 11.008 131.485 10.5227 131.25 10.096C131.015 9.66933 130.69 9.33867 130.274 9.104C129.869 8.85867 129.394 8.736 128.85 8.736C128.317 8.736 127.842 8.85867 127.426 9.104C127.01 9.33867 126.685 9.67467 126.45 10.112C126.215 10.5387 126.098 11.0293 126.098 11.584V11.84C126.098 12.4053 126.226 12.912 126.482 13.36C126.749 13.7973 127.117 14.1387 127.586 14.384C128.055 14.6293 128.594 14.752 129.202 14.752C129.703 14.752 130.157 14.6667 130.562 14.496C130.978 14.3253 131.341 14.0693 131.65 13.728L132.498 14.72C132.114 15.168 131.634 15.5093 131.058 15.744C130.493 15.9787 129.858 16.096 129.154 16.096Z" fill="#4285F4"/>
</svg>
